<svg width="128" height="128" viewBox="0 0 128 128" fill="none" xmlns="http://www.w3.org/2000/svg">
<mask id="path-1-outside-1_369_35" maskUnits="userSpaceOnUse" x="24" y="48" width="80" height="31" fill="black">
<rect fill="white" x="24" y="48" width="80" height="31"/>
<path d="M42.9375 68.7656C42.9375 70.1927 42.6042 71.3958 41.9375 72.375C41.2708 73.3438 40.3542 74.0781 39.1875 74.5781C38.0312 75.0677 36.7188 75.3125 35.25 75.3125C33.7812 75.3125 32.4635 75.0677 31.2969 74.5781C30.1302 74.0781 29.2083 73.3438 28.5312 72.375C27.8542 71.3958 27.5156 70.1927 27.5156 68.7656C27.5156 67.8073 27.7083 66.9427 28.0938 66.1719C28.4792 65.3906 29.0156 64.724 29.7031 64.1719C30.401 63.6094 31.2188 63.1823 32.1562 62.8906C33.0938 62.5885 34.1146 62.4375 35.2188 62.4375C36.6979 62.4375 38.0208 62.6979 39.1875 63.2188C40.3542 63.7396 41.2708 64.474 41.9375 65.4219C42.6042 66.3698 42.9375 67.4844 42.9375 68.7656ZM38.4062 68.4688C38.4062 67.7708 38.2708 67.1719 38 66.6719C37.7396 66.1615 37.3698 65.7708 36.8906 65.5C36.4115 65.2292 35.8542 65.0938 35.2188 65.0938C34.5833 65.0938 34.026 65.2292 33.5469 65.5C33.0677 65.7708 32.6927 66.1615 32.4219 66.6719C32.1615 67.1719 32.0312 67.7708 32.0312 68.4688C32.0312 69.1562 32.1615 69.75 32.4219 70.25C32.6927 70.75 33.0677 71.1354 33.5469 71.4062C34.0365 71.6667 34.6042 71.7969 35.25 71.7969C35.8958 71.7969 36.4531 71.6667 36.9219 71.4062C37.401 71.1354 37.7656 70.75 38.0156 70.25C38.276 69.75 38.4062 69.1562 38.4062 68.4688ZM42.4531 58.2812C42.4531 59.4375 42.1458 60.4635 41.5312 61.3594C40.9167 62.2448 40.0625 62.9375 38.9688 63.4375C37.8854 63.9375 36.6458 64.1875 35.25 64.1875C33.8438 64.1875 32.5938 63.9375 31.5 63.4375C30.4062 62.9375 29.5521 62.2448 28.9375 61.3594C28.3229 60.4635 28.0156 59.4375 28.0156 58.2812C28.0156 56.9062 28.3229 55.75 28.9375 54.8125C29.5625 53.8646 30.4167 53.1458 31.5 52.6562C32.5938 52.1667 33.8333 51.9219 35.2188 51.9219C36.625 51.9219 37.8698 52.1667 38.9531 52.6562C40.0469 53.1458 40.901 53.8646 41.5156 54.8125C42.1406 55.75 42.4531 56.9062 42.4531 58.2812ZM37.9531 58.4844C37.9531 57.8698 37.8438 57.3385 37.625 56.8906C37.4062 56.4323 37.0938 56.0781 36.6875 55.8281C36.2917 55.5781 35.8021 55.4531 35.2188 55.4531C34.6562 55.4531 34.1719 55.5729 33.7656 55.8125C33.3698 56.0521 33.0625 56.401 32.8438 56.8594C32.6354 57.3073 32.5312 57.849 32.5312 58.4844C32.5312 59.099 32.6354 59.6406 32.8438 60.1094C33.0625 60.5677 33.375 60.9271 33.7812 61.1875C34.1875 61.4479 34.6771 61.5781 35.25 61.5781C35.8229 61.5781 36.3073 61.4479 36.7031 61.1875C37.1094 60.9271 37.4167 60.5677 37.625 60.1094C37.8438 59.6406 37.9531 59.099 37.9531 58.4844ZM56.9531 52.2031V75H52.4531V57.3906L47.0469 59.1094V55.5625L56.4688 52.2031H56.9531ZM77.7812 52.25V75H73.1094V52.25H77.7812ZM100.203 63.1094V72.125C99.849 72.5521 99.3021 73.0156 98.5625 73.5156C97.8229 74.0052 96.8698 74.4271 95.7031 74.7812C94.5365 75.1354 93.125 75.3125 91.4688 75.3125C90 75.3125 88.6615 75.0729 87.4531 74.5938C86.2448 74.1042 85.2031 73.3906 84.3281 72.4531C83.4635 71.5156 82.7969 70.3698 82.3281 69.0156C81.8594 67.651 81.625 66.0938 81.625 64.3438V62.9219C81.625 61.1719 81.849 59.6146 82.2969 58.25C82.7552 56.8854 83.4062 55.7344 84.25 54.7969C85.0938 53.8594 86.099 53.1458 87.2656 52.6562C88.4323 52.1667 89.7292 51.9219 91.1562 51.9219C93.1354 51.9219 94.7604 52.2448 96.0312 52.8906C97.3021 53.526 98.2708 54.4115 98.9375 55.5469C99.6146 56.6719 100.031 57.9635 100.188 59.4219H95.6406C95.526 58.651 95.3073 57.9792 94.9844 57.4062C94.6615 56.8333 94.1979 56.3854 93.5938 56.0625C93 55.7396 92.2292 55.5781 91.2812 55.5781C90.5 55.5781 89.8021 55.7396 89.1875 56.0625C88.5833 56.375 88.0729 56.8385 87.6562 57.4531C87.2396 58.0677 86.9219 58.8281 86.7031 59.7344C86.4844 60.6406 86.375 61.6927 86.375 62.8906V64.3438C86.375 65.5312 86.4896 66.5833 86.7188 67.5C86.9479 68.4062 87.2865 69.1719 87.7344 69.7969C88.1927 70.4115 88.7552 70.875 89.4219 71.1875C90.0885 71.5 90.8646 71.6562 91.75 71.6562C92.4896 71.6562 93.1042 71.5938 93.5938 71.4688C94.0938 71.3438 94.4948 71.1927 94.7969 71.0156C95.1094 70.8281 95.349 70.651 95.5156 70.4844V66.4531H91.2344V63.1094H100.203Z"/>
</mask>
<path d="M42.9375 68.7656C42.9375 70.1927 42.6042 71.3958 41.9375 72.375C41.2708 73.3438 40.3542 74.0781 39.1875 74.5781C38.0312 75.0677 36.7188 75.3125 35.25 75.3125C33.7812 75.3125 32.4635 75.0677 31.2969 74.5781C30.1302 74.0781 29.2083 73.3438 28.5312 72.375C27.8542 71.3958 27.5156 70.1927 27.5156 68.7656C27.5156 67.8073 27.7083 66.9427 28.0938 66.1719C28.4792 65.3906 29.0156 64.724 29.7031 64.1719C30.401 63.6094 31.2188 63.1823 32.1562 62.8906C33.0938 62.5885 34.1146 62.4375 35.2188 62.4375C36.6979 62.4375 38.0208 62.6979 39.1875 63.2188C40.3542 63.7396 41.2708 64.474 41.9375 65.4219C42.6042 66.3698 42.9375 67.4844 42.9375 68.7656ZM38.4062 68.4688C38.4062 67.7708 38.2708 67.1719 38 66.6719C37.7396 66.1615 37.3698 65.7708 36.8906 65.5C36.4115 65.2292 35.8542 65.0938 35.2188 65.0938C34.5833 65.0938 34.026 65.2292 33.5469 65.5C33.0677 65.7708 32.6927 66.1615 32.4219 66.6719C32.1615 67.1719 32.0312 67.7708 32.0312 68.4688C32.0312 69.1562 32.1615 69.75 32.4219 70.25C32.6927 70.75 33.0677 71.1354 33.5469 71.4062C34.0365 71.6667 34.6042 71.7969 35.25 71.7969C35.8958 71.7969 36.4531 71.6667 36.9219 71.4062C37.401 71.1354 37.7656 70.75 38.0156 70.25C38.276 69.75 38.4062 69.1562 38.4062 68.4688ZM42.4531 58.2812C42.4531 59.4375 42.1458 60.4635 41.5312 61.3594C40.9167 62.2448 40.0625 62.9375 38.9688 63.4375C37.8854 63.9375 36.6458 64.1875 35.25 64.1875C33.8438 64.1875 32.5938 63.9375 31.5 63.4375C30.4062 62.9375 29.5521 62.2448 28.9375 61.3594C28.3229 60.4635 28.0156 59.4375 28.0156 58.2812C28.0156 56.9062 28.3229 55.75 28.9375 54.8125C29.5625 53.8646 30.4167 53.1458 31.5 52.6562C32.5938 52.1667 33.8333 51.9219 35.2188 51.9219C36.625 51.9219 37.8698 52.1667 38.9531 52.6562C40.0469 53.1458 40.901 53.8646 41.5156 54.8125C42.1406 55.75 42.4531 56.9062 42.4531 58.2812ZM37.9531 58.4844C37.9531 57.8698 37.8438 57.3385 37.625 56.8906C37.4062 56.4323 37.0938 56.0781 36.6875 55.8281C36.2917 55.5781 35.8021 55.4531 35.2188 55.4531C34.6562 55.4531 34.1719 55.5729 33.7656 55.8125C33.3698 56.0521 33.0625 56.401 32.8438 56.8594C32.6354 57.3073 32.5312 57.849 32.5312 58.4844C32.5312 59.099 32.6354 59.6406 32.8438 60.1094C33.0625 60.5677 33.375 60.9271 33.7812 61.1875C34.1875 61.4479 34.6771 61.5781 35.25 61.5781C35.8229 61.5781 36.3073 61.4479 36.7031 61.1875C37.1094 60.9271 37.4167 60.5677 37.625 60.1094C37.8438 59.6406 37.9531 59.099 37.9531 58.4844ZM56.9531 52.2031V75H52.4531V57.3906L47.0469 59.1094V55.5625L56.4688 52.2031H56.9531ZM77.7812 52.25V75H73.1094V52.25H77.7812ZM100.203 63.1094V72.125C99.849 72.5521 99.3021 73.0156 98.5625 73.5156C97.8229 74.0052 96.8698 74.4271 95.7031 74.7812C94.5365 75.1354 93.125 75.3125 91.4688 75.3125C90 75.3125 88.6615 75.0729 87.4531 74.5938C86.2448 74.1042 85.2031 73.3906 84.3281 72.4531C83.4635 71.5156 82.7969 70.3698 82.3281 69.0156C81.8594 67.651 81.625 66.0938 81.625 64.3438V62.9219C81.625 61.1719 81.849 59.6146 82.2969 58.25C82.7552 56.8854 83.4062 55.7344 84.25 54.7969C85.0938 53.8594 86.099 53.1458 87.2656 52.6562C88.4323 52.1667 89.7292 51.9219 91.1562 51.9219C93.1354 51.9219 94.7604 52.2448 96.0312 52.8906C97.3021 53.526 98.2708 54.4115 98.9375 55.5469C99.6146 56.6719 100.031 57.9635 100.188 59.4219H95.6406C95.526 58.651 95.3073 57.9792 94.9844 57.4062C94.6615 56.8333 94.1979 56.3854 93.5938 56.0625C93 55.7396 92.2292 55.5781 91.2812 55.5781C90.5 55.5781 89.8021 55.7396 89.1875 56.0625C88.5833 56.375 88.0729 56.8385 87.6562 57.4531C87.2396 58.0677 86.9219 58.8281 86.7031 59.7344C86.4844 60.6406 86.375 61.6927 86.375 62.8906V64.3438C86.375 65.5312 86.4896 66.5833 86.7188 67.5C86.9479 68.4062 87.2865 69.1719 87.7344 69.7969C88.1927 70.4115 88.7552 70.875 89.4219 71.1875C90.0885 71.5 90.8646 71.6562 91.75 71.6562C92.4896 71.6562 93.1042 71.5938 93.5938 71.4688C94.0938 71.3438 94.4948 71.1927 94.7969 71.0156C95.1094 70.8281 95.349 70.651 95.5156 70.4844V66.4531H91.2344V63.1094H100.203Z" fill="#E5FDFB" fill-opacity="0.15"/>
<path d="M41.9375 72.375L44.4088 74.0757L44.4131 74.0696L44.4173 74.0634L41.9375 72.375ZM39.1875 74.5781L40.3572 77.3407L40.3693 77.3356L39.1875 74.5781ZM31.2969 74.5781L30.1151 77.3356L30.1256 77.34L30.136 77.3444L31.2969 74.5781ZM28.5312 72.375L26.0637 74.0813L26.068 74.0875L26.0723 74.0936L28.5312 72.375ZM28.0938 66.1719L30.777 67.5135L30.7806 67.5063L30.7842 67.4991L28.0938 66.1719ZM29.7031 64.1719L31.5815 66.511L31.5857 66.5077L29.7031 64.1719ZM32.1562 62.8906L33.0475 65.7552L33.0619 65.7507L33.0763 65.746L32.1562 62.8906ZM41.9375 65.4219L39.4836 67.1477L41.9375 65.4219ZM38 66.6719L35.3277 68.0353L35.3445 68.0682L35.3621 68.1007L38 66.6719ZM32.4219 66.6719L29.7718 65.2657L29.7664 65.2759L29.7611 65.2861L32.4219 66.6719ZM32.4219 70.25L29.7611 71.6358L29.7724 71.6574L29.784 71.6789L32.4219 70.25ZM33.5469 71.4062L32.0707 74.0179L32.1041 74.0368L32.138 74.0549L33.5469 71.4062ZM36.9219 71.4062L38.3788 74.0287L38.3884 74.0234L38.398 74.0179L36.9219 71.4062ZM38.0156 70.25L35.3549 68.8642L35.3434 68.8862L35.3323 68.9084L38.0156 70.25ZM41.5312 61.3594L43.9957 63.07L44.0004 63.0633L44.0051 63.0565L41.5312 61.3594ZM38.9688 63.4375L37.7215 60.7091L37.7116 60.7136L38.9688 63.4375ZM28.9375 61.3594L26.4637 63.0565L26.4683 63.0633L26.473 63.07L28.9375 61.3594ZM28.9375 54.8125L26.4329 53.1611L26.4286 53.1677L28.9375 54.8125ZM31.5 52.6562L30.2743 49.918L30.2645 49.9225L31.5 52.6562ZM38.9531 52.6562L37.7177 55.3901L37.7275 55.3944L38.9531 52.6562ZM41.5156 54.8125L38.9984 56.4445L39.0088 56.4606L39.0195 56.4766L41.5156 54.8125ZM37.625 56.8906L34.9176 58.1828L34.9234 58.195L34.9293 58.2071L37.625 56.8906ZM36.6875 55.8281L35.0855 58.3646L35.1003 58.3739L35.1152 58.3831L36.6875 55.8281ZM33.7656 55.8125L32.2417 53.2284L32.2269 53.2371L32.2122 53.246L33.7656 55.8125ZM32.8438 56.8594L30.1363 55.5672L30.1299 55.5807L30.1236 55.5942L32.8438 56.8594ZM32.8438 60.1094L30.1023 61.3278L30.1188 61.3649L30.1363 61.4016L32.8438 60.1094ZM36.7031 61.1875L35.0841 58.6619L35.0691 58.6715L35.0543 58.6812L36.7031 61.1875ZM37.625 60.1094L34.9065 58.8407L34.9001 58.8543L34.8939 58.868L37.625 60.1094ZM39.9375 68.7656C39.9375 69.7157 39.7212 70.2996 39.4577 70.6866L44.4173 74.0634C45.4871 72.492 45.9375 70.6697 45.9375 68.7656H39.9375ZM39.4662 70.6743C39.1464 71.1389 38.6944 71.5256 38.0057 71.8207L40.3693 77.3356C42.0139 76.6307 43.3952 75.5486 44.4088 74.0757L39.4662 70.6743ZM38.0178 71.8156C37.2889 72.1242 36.3842 72.3125 35.25 72.3125V78.3125C37.0533 78.3125 38.7736 78.0112 40.3572 77.3407L38.0178 71.8156ZM35.25 72.3125C34.1165 72.3125 33.2025 72.1244 32.4577 71.8118L30.136 77.3444C31.7245 78.011 33.446 78.3125 35.25 78.3125V72.3125ZM32.4786 71.8207C31.7867 71.5241 31.3229 71.1325 30.9902 70.6564L26.0723 74.0936C27.0937 75.555 28.4738 76.6321 30.1151 77.3356L32.4786 71.8207ZM30.9988 70.6687C30.7326 70.2838 30.5156 69.7066 30.5156 68.7656H24.5156C24.5156 70.6789 24.9757 72.5079 26.0637 74.0813L30.9988 70.6687ZM30.5156 68.7656C30.5156 68.2202 30.6223 67.823 30.777 67.5135L25.4105 64.8302C24.7944 66.0624 24.5156 67.3944 24.5156 68.7656H30.5156ZM30.7842 67.4991C30.9735 67.1153 31.231 66.7925 31.5815 66.511L27.8247 61.8327C26.8003 62.6554 25.9848 63.666 25.4033 64.8446L30.7842 67.4991ZM31.5857 66.5077C31.9625 66.2039 32.4363 65.9453 33.0475 65.7552L31.265 60.0261C30.0012 60.4192 28.8395 61.0148 27.8205 61.8361L31.5857 66.5077ZM33.0763 65.746C33.683 65.5506 34.3896 65.4375 35.2188 65.4375V59.4375C33.8396 59.4375 32.5045 59.6265 31.2362 60.0352L33.0763 65.746ZM35.2188 65.4375C36.3425 65.4375 37.2387 65.6341 37.9645 65.9582L40.4105 60.4793C38.8029 59.7617 37.0533 59.4375 35.2188 59.4375V65.4375ZM37.9645 65.9582C38.6891 66.2816 39.1596 66.687 39.4836 67.1477L44.3914 63.6961C43.3821 62.2609 42.0192 61.1975 40.4105 60.4793L37.9645 65.9582ZM39.4836 67.1477C39.7576 67.5372 39.9375 68.0339 39.9375 68.7656H45.9375C45.9375 66.9348 45.4508 65.2024 44.3914 63.6961L39.4836 67.1477ZM41.4062 68.4688C41.4062 67.384 41.1946 66.2708 40.6379 65.243L35.3621 68.1007C35.3471 68.0729 35.4062 68.1577 35.4062 68.4688H41.4062ZM40.6723 65.3085C40.1559 64.2963 39.3803 63.4612 38.3668 62.8883L35.4145 68.1117C35.4088 68.1085 35.3985 68.1021 35.3857 68.0921C35.3727 68.082 35.3601 68.0705 35.3487 68.0585C35.3241 68.0325 35.3193 68.0188 35.3277 68.0353L40.6723 65.3085ZM38.3668 62.8883C37.3718 62.3259 36.2907 62.0938 35.2188 62.0938V68.0938C35.3231 68.0938 35.3816 68.1048 35.4049 68.1105C35.4262 68.1157 35.4255 68.118 35.4145 68.1117L38.3668 62.8883ZM35.2188 62.0938C34.1468 62.0938 33.0657 62.3259 32.0707 62.8883L35.023 68.1117C35.012 68.118 35.0113 68.1157 35.0326 68.1105C35.0559 68.1048 35.1144 68.0938 35.2188 68.0938V62.0938ZM32.0707 62.8883C31.0678 63.4552 30.2969 64.2762 29.7718 65.2657L35.0719 68.078C35.0794 68.0639 35.0835 68.0584 35.0829 68.0592C35.0822 68.0602 35.0781 68.0657 35.0704 68.0737C35.0627 68.0818 35.0535 68.09 35.0438 68.0975C35.0342 68.105 35.0267 68.1096 35.023 68.1117L32.0707 62.8883ZM29.7611 65.2861C29.231 66.304 29.0312 67.4012 29.0312 68.4688H35.0312C35.0312 68.1405 35.092 68.0397 35.0826 68.0577L29.7611 65.2861ZM29.0312 68.4688C29.0312 69.5341 29.2341 70.6238 29.7611 71.6358L35.0826 68.8642C35.0826 68.8642 35.0825 68.8639 35.0822 68.8633C35.0819 68.8628 35.0815 68.8619 35.081 68.8607C35.0799 68.8582 35.0783 68.8542 35.0762 68.8484C35.0721 68.8369 35.0658 68.817 35.0593 68.7871C35.046 68.7266 35.0312 68.624 35.0312 68.4688H29.0312ZM29.784 71.6789C30.3139 72.6571 31.084 73.4603 32.0707 74.0179L35.023 68.7946C35.0229 68.7945 35.024 68.7951 35.0262 68.7965C35.0284 68.798 35.0313 68.8 35.0348 68.8027C35.042 68.8083 35.0496 68.8149 35.0564 68.822C35.0633 68.829 35.0672 68.8341 35.0683 68.8356C35.0693 68.837 35.0661 68.8329 35.0598 68.8211L29.784 71.6789ZM32.138 74.0549C33.1278 74.5813 34.194 74.7969 35.25 74.7969V68.7969C35.1287 68.7969 35.052 68.7847 35.0105 68.7751C34.9708 68.766 34.9562 68.7579 34.9557 68.7576L32.138 74.0549ZM35.25 74.7969C36.3018 74.7969 37.3816 74.5827 38.3788 74.0287L35.4649 68.7838C35.4894 68.7702 35.4959 68.7718 35.4698 68.7779C35.4414 68.7845 35.372 68.7969 35.25 68.7969V74.7969ZM38.398 74.0179C39.4056 73.4485 40.1863 72.6168 40.6989 71.5916L35.3323 68.9084C35.332 68.9091 35.3446 68.8849 35.3753 68.8525C35.4063 68.8197 35.4346 68.8008 35.4457 68.7946L38.398 74.0179ZM40.6764 71.6358C41.2034 70.6238 41.4062 69.5341 41.4062 68.4688H35.4062C35.4062 68.624 35.3915 68.7266 35.3782 68.7871C35.3717 68.817 35.3654 68.8369 35.3613 68.8484C35.3592 68.8542 35.3576 68.8582 35.3565 68.8607C35.356 68.8619 35.3556 68.8628 35.3553 68.8633C35.355 68.8639 35.3549 68.8642 35.3549 68.8642L40.6764 71.6358ZM39.4531 58.2812C39.4531 58.8727 39.3068 59.2988 39.0574 59.6622L44.0051 63.0565C44.9849 61.6283 45.4531 60.0023 45.4531 58.2812H39.4531ZM39.0668 59.6487C38.7937 60.0421 38.3836 60.4064 37.7215 60.7091L40.216 66.1659C41.7414 65.4686 43.0396 64.4475 43.9957 63.07L39.0668 59.6487ZM37.7116 60.7136C37.0838 61.0034 36.2849 61.1875 35.25 61.1875V67.1875C37.0068 67.1875 38.687 66.8716 40.2259 66.1614L37.7116 60.7136ZM35.25 61.1875C34.2019 61.1875 33.3888 61.0023 32.7473 60.7091L30.2527 66.1659C31.7987 66.8727 33.4856 67.1875 35.25 67.1875V61.1875ZM32.7473 60.7091C32.0851 60.4064 31.675 60.0421 31.402 59.6487L26.473 63.07C27.4292 64.4475 28.7274 65.4686 30.2527 66.1659L32.7473 60.7091ZM31.4113 59.6622C31.162 59.2988 31.0156 58.8727 31.0156 58.2812H25.0156C25.0156 60.0023 25.4838 61.6283 26.4637 63.0565L31.4113 59.6622ZM31.0156 58.2812C31.0156 57.3574 31.2182 56.8054 31.4464 56.4573L26.4286 53.1677C25.4276 54.6946 25.0156 56.4551 25.0156 58.2812H31.0156ZM31.4421 56.4639C31.7398 56.0123 32.1435 55.6576 32.7355 55.39L30.2645 49.9225C28.6899 50.6341 27.3852 51.7168 26.4329 53.1611L31.4421 56.4639ZM32.7257 55.3944C33.3782 55.1024 34.1902 54.9219 35.2188 54.9219V48.9219C33.4764 48.9219 31.8093 49.231 30.2743 49.9181L32.7257 55.3944ZM35.2188 54.9219C36.2759 54.9219 37.0871 55.1051 37.7177 55.39L40.1886 49.9225C38.6525 49.2283 36.9741 48.9219 35.2188 48.9219V54.9219ZM37.7275 55.3944C38.3267 55.6627 38.7181 56.0122 38.9984 56.4445L44.0329 53.1805C43.084 51.7169 41.7671 50.629 40.1788 49.9181L37.7275 55.3944ZM39.0195 56.4766C39.2498 56.822 39.4531 57.3668 39.4531 58.2812H45.4531C45.4531 56.4457 45.0315 54.678 44.0118 53.1484L39.0195 56.4766ZM40.9531 58.4844C40.9531 57.5176 40.7808 56.5163 40.3207 55.5741L34.9293 58.2071C34.9067 58.1608 34.9531 58.2219 34.9531 58.4844H40.9531ZM40.3324 55.5984C39.8817 54.654 39.1904 53.8459 38.2598 53.2732L35.1152 58.3831C35.0682 58.3542 35.0191 58.3137 34.977 58.2661C34.936 58.2196 34.919 58.1859 34.9176 58.1828L40.3324 55.5984ZM38.2895 53.2917C37.3088 52.6723 36.23 52.4531 35.2188 52.4531V58.4531C35.2977 58.4531 35.3129 58.4617 35.2813 58.4536C35.2459 58.4446 35.1733 58.42 35.0855 58.3646L38.2895 53.2917ZM35.2188 52.4531C34.224 52.4531 33.1915 52.6683 32.2417 53.2284L35.2896 58.3966C35.2602 58.414 35.2322 58.4274 35.2075 58.4373C35.183 58.4472 35.1644 58.4526 35.1538 58.4552C35.1327 58.4605 35.15 58.4531 35.2188 58.4531V52.4531ZM32.2122 53.246C31.2671 53.8181 30.5816 54.6343 30.1363 55.5672L35.5512 58.1516C35.5521 58.1496 35.5353 58.1848 35.4898 58.2365C35.4428 58.2899 35.3834 58.34 35.319 58.379L32.2122 53.246ZM30.1236 55.5942C29.6861 56.5348 29.5312 57.5324 29.5312 58.4844H35.5312C35.5312 58.1655 35.5847 58.0798 35.5639 58.1246L30.1236 55.5942ZM29.5312 58.4844C29.5312 59.437 29.6932 60.4072 30.1023 61.3278L35.5852 58.891C35.5777 58.874 35.5312 58.7609 35.5312 58.4844H29.5312ZM30.1363 61.4016C30.5826 62.3367 31.2602 63.1349 32.1623 63.7131L35.4002 58.6619C35.4343 58.6837 35.4724 58.7155 35.506 58.7541C35.5389 58.7919 35.5516 58.8181 35.5512 58.8172L30.1363 61.4016ZM32.1623 63.7131C33.1359 64.3373 34.2122 64.5781 35.25 64.5781V58.5781C35.1905 58.5781 35.1871 58.5714 35.2242 58.5813C35.2646 58.592 35.329 58.6162 35.4002 58.6619L32.1623 63.7131ZM35.25 64.5781C36.285 64.5781 37.3724 64.3382 38.352 63.6938L35.0543 58.6812C35.139 58.6255 35.2155 58.5964 35.2642 58.5833C35.309 58.5713 35.31 58.5781 35.25 58.5781V64.5781ZM38.3221 63.7131C39.2368 63.1268 39.9195 62.3114 40.3561 61.3508L34.8939 58.868C34.8986 58.8576 34.9176 58.8205 34.9582 58.773C34.9994 58.7248 35.045 58.6869 35.0841 58.6619L38.3221 63.7131ZM40.3435 61.378C40.7793 60.4443 40.9531 59.4558 40.9531 58.4844H34.9531C34.9531 58.7421 34.9082 58.837 34.9065 58.8407L40.3435 61.378ZM56.9531 52.2031H59.9531V49.2031H56.9531V52.2031ZM56.9531 75V78H59.9531V75H56.9531ZM52.4531 75H49.4531V78H52.4531V75ZM52.4531 57.3906H55.4531V53.2889L51.5442 54.5316L52.4531 57.3906ZM47.0469 59.1094H44.0469V63.2111L47.9558 61.9684L47.0469 59.1094ZM47.0469 55.5625L46.0394 52.7367L44.0469 53.4472V55.5625H47.0469ZM56.4688 52.2031V49.2031H55.9499L55.4612 49.3774L56.4688 52.2031ZM53.9531 52.2031V75H59.9531V52.2031H53.9531ZM56.9531 72H52.4531V78H56.9531V72ZM55.4531 75V57.3906H49.4531V75H55.4531ZM51.5442 54.5316L46.1379 56.2504L47.9558 61.9684L53.3621 60.2496L51.5442 54.5316ZM50.0469 59.1094V55.5625H44.0469V59.1094H50.0469ZM48.0544 58.3883L57.4763 55.0289L55.4612 49.3774L46.0394 52.7367L48.0544 58.3883ZM56.4688 55.2031H56.9531V49.2031H56.4688V55.2031ZM77.7812 52.25H80.7812V49.25H77.7812V52.25ZM77.7812 75V78H80.7812V75H77.7812ZM73.1094 75H70.1094V78H73.1094V75ZM73.1094 52.25V49.25H70.1094V52.25H73.1094ZM74.7812 52.25V75H80.7812V52.25H74.7812ZM77.7812 72H73.1094V78H77.7812V72ZM76.1094 75V52.25H70.1094V75H76.1094ZM73.1094 55.25H77.7812V49.25H73.1094V55.25ZM100.203 63.1094H103.203V60.1094H100.203V63.1094ZM100.203 72.125L102.512 74.04L103.203 73.2071V72.125H100.203ZM98.5625 73.5156L100.218 76.0172L100.231 76.0091L100.243 76.001L98.5625 73.5156ZM95.7031 74.7812L94.8317 71.9106L95.7031 74.7812ZM87.4531 74.5938L86.3266 77.3742L86.3369 77.3784L86.3472 77.3825L87.4531 74.5938ZM84.3281 72.4531L82.1228 74.4869L82.1288 74.4935L82.135 74.5001L84.3281 72.4531ZM82.3281 69.0156L79.4908 69.9903L79.4932 69.997L82.3281 69.0156ZM82.2969 58.25L79.453 57.2948L79.4497 57.3046L79.4465 57.3144L82.2969 58.25ZM96.0312 52.8906L94.6721 55.5651L94.6808 55.5695L94.6896 55.5739L96.0312 52.8906ZM98.9375 55.5469L96.3505 57.0659L96.3587 57.0799L96.3671 57.0939L98.9375 55.5469ZM100.188 59.4219V62.4219H103.526L103.17 59.1023L100.188 59.4219ZM95.6406 59.4219L92.6732 59.863L93.0536 62.4219H95.6406V59.4219ZM93.5938 56.0625L92.1604 58.698L92.17 58.7032L92.1796 58.7083L93.5938 56.0625ZM89.1875 56.0625L90.5658 58.7272L90.5743 58.7227L90.5829 58.7182L89.1875 56.0625ZM86.7188 67.5L83.8083 68.2276L83.8103 68.2355L86.7188 67.5ZM87.7344 69.7969L85.2959 71.5444L85.3125 71.5675L85.3295 71.5903L87.7344 69.7969ZM93.5938 71.4688L92.8661 68.5583L92.8589 68.5601L92.8516 68.562L93.5938 71.4688ZM94.7969 71.0156L96.314 73.6037L96.3272 73.596L96.3404 73.5881L94.7969 71.0156ZM95.5156 70.4844L97.6369 72.6057L98.5156 71.727V70.4844H95.5156ZM95.5156 66.4531H98.5156V63.4531H95.5156V66.4531ZM91.2344 66.4531H88.2344V69.4531H91.2344V66.4531ZM91.2344 63.1094V60.1094H88.2344V63.1094H91.2344ZM97.2031 63.1094V72.125H103.203V63.1094H97.2031ZM97.8939 70.21C97.7973 70.3265 97.5109 70.6053 96.8823 71.0303L100.243 76.001C101.093 75.4259 101.901 74.7777 102.512 74.04L97.8939 70.21ZM96.9065 71.0141C96.4807 71.2959 95.8165 71.6117 94.8317 71.9106L96.5746 77.6519C97.9231 77.2425 99.1651 76.7145 100.218 76.0172L96.9065 71.0141ZM94.8317 71.9106C94.0282 72.1545 92.9279 72.3125 91.4688 72.3125V78.3125C93.3221 78.3125 95.0447 78.1163 96.5746 77.6519L94.8317 71.9106ZM91.4688 72.3125C90.3298 72.3125 89.3726 72.1276 88.559 71.805L86.3472 77.3825C87.9503 78.0182 89.6702 78.3125 91.4688 78.3125V72.3125ZM88.5797 71.8133C87.7691 71.4849 87.0933 71.019 86.5213 70.4062L82.135 74.5001C83.313 75.7622 84.7205 76.7235 86.3266 77.3742L88.5797 71.8133ZM86.5335 70.4193C85.9817 69.821 85.5134 69.0463 85.1631 68.0343L79.4932 69.997C80.0803 71.6933 80.9454 73.2103 82.1228 74.4869L86.5335 70.4193ZM85.1654 68.041C84.8245 67.0487 84.625 65.8304 84.625 64.3438H78.625C78.625 66.3571 78.8942 68.2534 79.4909 69.9903L85.1654 68.041ZM84.625 64.3438V62.9219H78.625V64.3438H84.625ZM84.625 62.9219C84.625 61.4228 84.8174 60.1906 85.1472 59.1856L79.4465 57.3144C78.8806 59.0386 78.625 60.921 78.625 62.9219H84.625ZM85.1407 59.2052C85.4868 58.1748 85.9467 57.3962 86.4799 56.8038L82.0201 52.79C80.8658 54.0725 80.0236 55.5961 79.453 57.2948L85.1407 59.2052ZM86.4799 56.8038C87.0267 56.1962 87.6665 55.7415 88.4265 55.4225L86.1048 49.89C84.5314 50.5502 83.1608 51.5225 82.0201 52.79L86.4799 56.8038ZM88.4265 55.4225C89.1814 55.1058 90.0769 54.9219 91.1562 54.9219V48.9219C89.3814 48.9219 87.6832 49.2276 86.1048 49.89L88.4265 55.4225ZM91.1562 54.9219C92.8361 54.9219 93.9535 55.1999 94.6721 55.5651L97.3904 50.2162C95.5674 49.2897 93.4347 48.9219 91.1562 48.9219V54.9219ZM94.6896 55.5739C95.4843 55.9713 96.001 56.4706 96.3505 57.0659L101.525 54.0279C100.541 52.3523 99.1198 51.0808 97.3729 50.2073L94.6896 55.5739ZM96.3671 57.0939C96.7939 57.803 97.0894 58.6663 97.2046 59.7415L103.17 59.1023C102.973 57.2608 102.435 55.5408 101.508 53.9999L96.3671 57.0939ZM100.188 56.4219H95.6406V62.4219H100.188V56.4219ZM98.608 58.9808C98.4493 57.9129 98.1307 56.8787 97.5978 55.9332L92.3709 58.8793C92.4838 59.0796 92.6028 59.3892 92.6732 59.863L98.608 58.9808ZM97.5978 55.9332C96.9828 54.8419 96.0932 53.9968 95.0079 53.4167L92.1796 58.7083C92.3027 58.7741 92.3402 58.8247 92.3709 58.8793L97.5978 55.9332ZM95.0271 53.427C93.852 52.788 92.5395 52.5781 91.2812 52.5781V58.5781C91.9189 58.5781 92.148 58.6912 92.1604 58.698L95.0271 53.427ZM91.2812 52.5781C90.0755 52.5781 88.8885 52.8307 87.7921 53.4068L90.5829 58.7182C90.7156 58.6485 90.9245 58.5781 91.2812 58.5781V52.5781ZM87.8092 53.3978C86.7208 53.9608 85.8442 54.7799 85.1731 55.7697L90.1394 59.1366C90.3017 58.8972 90.4458 58.7892 90.5658 58.7272L87.8092 53.3978ZM85.1731 55.7697C84.5103 56.7474 84.0694 57.8602 83.7869 59.0305L89.6194 60.4383C89.7744 59.7961 89.9689 59.3881 90.1394 59.1366L85.1731 55.7697ZM83.7869 59.0305C83.4993 60.2217 83.375 61.5191 83.375 62.8906H89.375C89.375 61.8663 89.4694 61.0596 89.6194 60.4383L83.7869 59.0305ZM83.375 62.8906V64.3438H89.375V62.8906H83.375ZM83.375 64.3438C83.375 65.7169 83.5068 67.0213 83.8083 68.2276L89.6292 66.7724C89.4724 66.1453 89.375 65.3456 89.375 64.3438H83.375ZM83.8103 68.2355C84.1122 69.4293 84.5879 70.5564 85.2959 71.5444L90.1728 68.0493C89.9851 67.7873 89.7837 67.3832 89.6272 66.7645L83.8103 68.2355ZM85.3295 71.5903C86.0706 72.5841 87.0157 73.3728 88.1486 73.9039L90.6952 68.4711C90.4947 68.3772 90.3148 68.2388 90.1393 68.0034L85.3295 71.5903ZM88.1486 73.9039C89.2862 74.4372 90.5123 74.6562 91.75 74.6562V68.6562C91.2169 68.6562 90.8908 68.5628 90.6952 68.4711L88.1486 73.9039ZM91.75 74.6562C92.6356 74.6562 93.5201 74.5838 94.3359 74.3755L92.8516 68.562C92.6882 68.6037 92.3436 68.6562 91.75 68.6562V74.6562ZM94.3214 74.3792C94.9809 74.2143 95.6791 73.976 96.314 73.6037L93.2797 68.4275C93.3036 68.4135 93.2873 68.4259 93.2122 68.4542C93.1385 68.482 93.0259 68.5184 92.8661 68.5583L94.3214 74.3792ZM96.3404 73.5881C96.7622 73.335 97.2297 73.013 97.6369 72.6057L93.3943 68.3631C93.4395 68.3178 93.4575 68.3077 93.4278 68.3297C93.4 68.3502 93.3446 68.3884 93.2534 68.4431L96.3404 73.5881ZM98.5156 70.4844V66.4531H92.5156V70.4844H98.5156ZM95.5156 63.4531H91.2344V69.4531H95.5156V63.4531ZM94.2344 66.4531V63.1094H88.2344V66.4531H94.2344ZM91.2344 66.1094H100.203V60.1094H91.2344V66.1094Z" fill="#4FDAD7" mask="url(#path-1-outside-1_369_35)"/>
</svg>
